<svg height="205" viewBox="0 0 250 205" width="250" xmlns="http://www.w3.org/2000/svg"><path d="m0 0v168c0 47.6 35.7 32.3 59.1 26.9s49.2-15.7 66.6-15.7 42.6 10.3 66 15.7 58.3 20.6 58.3-26.9v-168z" fill="#323232"/><path d="m50 70.3h-10.1l-2.5 9.9h-7.7l12.4-43.4h6.1l12.5 43.4h-8.1zm-8.5-6.3h7.1l-2.5-10-1-6.8h-.1l-1 6.8zm49.3-6.1.9-8.2h-.3l-2.3 7.3-7 15.1h-2.6l-7.4-15.1-2.3-7.4h-.4l1.2 8.3v22.3h-7.3v-43.2h7.4l9 18.7 1.5 5.4h.2l1.4-5.5 8.4-18.6h7.3v43.1h-7.7zm12.3.7c0-7.3 1.2-12.9 3.7-16.7s6.3-5.7 11.4-5.7c2.7 0 4.9.5 6.9 1.6 1.9 1 3.5 2.5 4.7 4.5 1.2 1.9 2.1 4.3 2.7 7.1s.9 5.9.9 9.3c0 7.3-1.3 12.9-3.8 16.7-2.6 3.8-6.3 5.7-11.4 5.7-2.7 0-5-.5-6.9-1.6-1.9-1-3.5-2.5-4.7-4.5-1.2-1.9-2.1-4.3-2.7-7.1-.5-2.8-.8-5.9-.8-9.3zm8.1 0c0 2.2.1 4.2.4 6.1.2 1.9.7 3.5 1.2 4.8.6 1.4 1.3 2.4 2.2 3.2s2 1.2 3.3 1.2c2.4 0 4.1-1.2 5.3-3.6s1.8-6.3 1.8-11.6c0-2.1-.1-4.1-.4-5.9-.2-1.9-.6-3.5-1.2-4.9s-1.3-2.5-2.2-3.3-2-1.2-3.4-1.2c-4.7-.1-7 5-7 15.2zm26.8-21.6h21.5v7.1h-13.7v10.6h12.4v7.1h-12.4v11.2h14v7.1h-21.8zm50.9 10c0 1.1-.1 2.1-.3 3.2-.2 1-.6 2-1.1 3-.5.9-1.1 1.7-1.9 2.4s-1.7 1.2-2.9 1.6v.4c1 .2 1.9.6 2.8 1.1s1.6 1.2 2.3 2 1.2 1.9 1.6 3.1.6 2.6.6 4.3c0 2.2-.4 4.1-1.1 5.8-.8 1.6-1.8 2.9-3.1 4-1.3 1-2.8 1.8-4.5 2.3s-3.5.7-5.5.7h-2.2c-.9 0-1.9 0-2.9-.1s-2.1-.2-3.2-.3-2.1-.3-3.1-.6v-42.6c1.3-.2 3-.5 5-.6 2-.2 4-.3 5.9-.3 1.8 0 3.5.1 5.2.4s3.1.8 4.4 1.6c1.2.8 2.2 1.9 3 3.2.6 1.5 1 3.2 1 5.4zm-15.1 8.3c.4 0 1 0 1.6-.1s1.1-.1 1.4-.2c1.2-.5 2.2-1.2 3-2.2s1.3-2.4 1.3-4c0-1.1-.1-2-.4-2.7s-.7-1.3-1.2-1.8c-.5-.4-1.1-.7-1.7-.9-.7-.2-1.4-.3-2.2-.3-1.7 0-2.9.1-3.6.2v11.9h1.8zm2.1 18.7c1.7 0 3.1-.6 4.2-1.7s1.7-2.7 1.7-4.9c0-1.4-.2-2.4-.6-3.2s-.9-1.4-1.5-1.8-1.3-.7-2.1-.8-1.6-.2-2.5-.2h-3.1v12.3c.3.1.9.2 1.7.3zm35.8-3.7h-10.1l-2.5 9.9h-7.7l12.4-43.4h6.1l12.5 43.4h-8.1zm-8.4-6.3h7.1l-2.5-10-1-6.8h-.2l-1 6.8zm-145.4 58.4h-10.2l-2.5 9.9h-7.7l12.5-43.5h6.1l12.5 43.4h-8.1zm-8.5-6.3h7.1l-2.5-10-1-6.8h-.2l-1 6.8zm49.3-6.1.9-8.2h-.3l-2.3 7.4-7 15.1h-2.6l-7.4-15.2-2.3-7.4h-.4l1.2 8.3v22.3h-7.3v-43.2h7.4l9 18.7 1.5 5.4h.2l1.4-5.5 8.4-18.5h7.3v43.1h-7.7zm13.9-20.9h7.7v43.1h-7.7zm26.9 20.8h13.2v19.1c-1.5 1.4-3.3 2.5-5.3 3.1s-4 1-6 1c-2.4 0-4.6-.4-6.6-1.3s-3.6-2.2-5-4-2.4-4.1-3.2-7c-.8-2.8-1.1-6.2-1.1-10.1 0-4.1.4-7.6 1.3-10.4s2.1-5.1 3.6-6.9 3.2-3.1 5.2-3.9 4.1-1.2 6.3-1.2c2 0 3.8.2 5.4.5s3 .7 4 1.2l-1.6 6.7c-.8-.4-1.8-.7-2.9-.9s-2.4-.4-4-.4c-1.4 0-2.7.3-3.9.9s-2.1 1.5-2.9 2.7-1.4 2.8-1.8 4.8-.6 4.3-.6 7c0 5.2.8 9.1 2.4 11.5 1.6 2.5 3.6 3.7 6.2 3.7.8 0 1.6-.1 2.4-.4.8-.2 1.4-.6 2-1.2v-8.9l-7.1-1zm35.2 12.5h-10.1l-2.5 9.9h-7.7l12.4-43.4h6.1l12.5 43.4h-8.1zm-8.5-6.3h7.1l-2.5-10-1-6.8h-.2l-1 6.8zm36.9 5c0-1.3-.4-2.4-1.2-3.4-.8-.9-1.7-1.8-2.9-2.6s-2.4-1.7-3.8-2.5c-1.4-.9-2.6-1.9-3.8-3s-2.1-2.5-2.9-4.1-1.2-3.5-1.2-5.7c0-2.1.3-3.9 1-5.3.6-1.5 1.5-2.6 2.6-3.6s2.4-1.6 3.9-2 3.1-.6 4.8-.6c2.1 0 4 .2 5.8.6s3.3 1 4.5 1.7l-2.4 6.8c-.7-.5-1.7-.9-3.1-1.4-1.4-.4-2.9-.6-4.4-.6-1.6 0-2.8.3-3.7 1s-1.3 1.6-1.3 2.9c0 1.1.4 2.2 1.2 3 .8.9 1.7 1.7 2.9 2.6 1.2.8 2.4 1.7 3.8 2.6s2.6 1.9 3.8 3.1 2.1 2.5 2.9 4.1 1.2 3.5 1.2 5.6c0 2.2-.3 4.1-1 5.7s-1.5 2.9-2.7 4-2.6 1.8-4.2 2.4-3.5.8-5.5.8c-2.5 0-4.8-.2-6.7-.7s-3.4-1-4.4-1.7l2.5-7c.8.5 1.9 1 3.4 1.5 1.4.5 3 .7 4.6.7 4.2-.1 6.3-1.7 6.3-4.9z" fill="#f6f4ec"/></svg>