<svg xmlns="http://www.w3.org/2000/svg" width="300" height="300" viewBox="0 0 300 300"><style type="text/css">.st0{fill:#AAA592;} .st1{fill:#F6F4EC;} .st2{fill:#7E7A6C;}</style><path class="st0" d="M135 251.8c-39.9 0-70.2-11.4-89.8-34-17.9-20.5-25.7-50.1-21.4-81.1 2.7-20.7 14.7-45.2 31.1-63.7 19.2-21.8 42.5-33.8 65.4-33.8 17.2 0 34 6.6 50 19.5 23.5 19 44.4 29.8 61.3 38.4 32 16.4 53.2 27.3 54.8 75 2.6 74.5-49.5 76.3-144 79.6-2.5.1-5 .1-7.4.1z"/><path class="st1" d="M282.4 172.2c2.4 70-44 72.1-140.1 75.5-96.2 3.3-121.7-59.1-114.6-110.4 7-51.3 72.5-130.3 140.1-75.5 67.6 54.9 112.2 40.5 114.6 110.4z"/><circle class="st0" cx="164" cy="120.7" r="17.2"/><circle class="st0" cx="167" cy="154.7" r="11.9"/><circle class="st2" cx="166.3" cy="147.8" r="2.8"/><circle class="st2" cx="169.1" cy="153.4" r="2.8"/><circle class="st2" cx="173.9" cy="157.5" r="2.8"/><circle class="st2" cx="167" cy="161.7" r="2.8"/><circle class="st2" cx="160.8" cy="158.9" r="2.8"/><circle class="st2" cx="161.5" cy="152.7" r="2.8"/><ellipse class="st0" cx="230.1" cy="197.1" rx="2.8" ry="4.9"/><ellipse class="st0" cx="236.5" cy="214" rx="2.2" ry="3.8"/><ellipse transform="matrix(.966 -.259 .259 .966 -42.441 68.223)" class="st0" cx="237.5" cy="195.1" rx="2.2" ry="3.9"/><ellipse transform="matrix(.966 -.259 .259 .966 -46.158 70.031)" class="st0" cx="242.5" cy="210.1" rx="2.2" ry="3.9"/><ellipse transform="matrix(.771 -.637 .637 .771 -83.14 195.065)" class="st0" cx="229.5" cy="213.1" rx="2.2" ry="3.9"/><ellipse transform="matrix(.598 -.802 .802 .598 -73.68 263.205)" class="st0" cx="225.3" cy="205" rx="3.2" ry="5.5"/><ellipse transform="matrix(.881 .474 -.474 .881 123.13 -92.231)" class="st0" cx="244.7" cy="198.4" rx="2.8" ry="4.9"/><ellipse transform="matrix(.748 .664 -.664 .748 195.621 -105.021)" class="st0" cx="236.1" cy="205.1" rx="2.8" ry="4.9"/></svg>