<svg xmlns="http://www.w3.org/2000/svg" width="300" height="300" viewBox="0 0 300 300"><style type="text/css">.st0{fill:#AAA592;} .st1{fill:#F6F4EC;} .st2{fill:#7E7A6C;}</style><path class="st0" d="M229.4 247.2c-6.4 0-12.4-3.3-18.7-6.8-7.3-4-14.8-8.2-24-8.2-.9 0-1.8 0-2.6.1-8.2.7-14.7 3.3-19.9 5.3-4.1 1.6-7.3 2.9-10.4 2.9-9.8 0-10.6-11.7-10.6-25.8 0-11.9-1.9-18.7-5.2-18.7-4.1 0-11.5 5.7-17.4 10.3l-.7.6c-2.5 1.9-5.1 2.9-7.8 2.9-6.1 0-11.5-5.2-14-13.6-3.3-11.1-1.1-26.8 11.6-35.2 1.3-.9 2.6-2.1 2.4-2.9-.6-2-5.9-5.1-12.4-5.1h-.6c-4.2.1-7.9 1.7-12.5 3.6-7.5 3.1-16.9 7-33 7-1.4 0-2.9 0-4.4-.1-11.4-.5-19.5-3.5-24.6-9.3-8-9.1-7.5-23.1-5.9-40.5 1.7-19.1 11.2-23.1 18.9-23.1 6.1 0 13.3 2.4 22.7 7.7 9.6 5.4 13.5 13 16.7 19.1 2.7 5.2 4.8 9.3 9.6 11.3 1.4.6 2.6.9 3.6.9 1.1 0 1.8-.4 2.5-1.2 1.8-2.3 2.1-7.7.9-12.2-1.2-4.2-.4-8.3 2.1-11.6 3-3.9 8.1-6.3 13.7-6.3 5.3 0 10.3 2.1 14.1 5.9 4.5 4.6 5.3 10.8 6.2 17.4 1.4 10.4 3.1 22.1 17.8 33.8 3.3 2.6 6.2 3.9 8.6 3.9 6.3 0 10.4-9.4 12.3-14.9 2.6-7.6 3.6-15.3 3.8-16.6 0-3.1.5-30.5 10.6-58.4 1.5-4.1 6-16.6 15.1-16.6 10.6 0 16.7 16.7 18.1 23.1 1.3 6 .1 13.6-1.1 20.9-.7 4.6-2 12.1-1 14h.8c2.1 0 5.3-.6 8.7-1.2 4.6-.8 9.8-1.8 14.6-1.8 13.3 0 17.1 7.4 17.9 13.7 1.8 13.7-13 19.8-27.2 25.7-9.5 3.9-19.4 8-25.2 14.1-5.1 5.4-5.7 7.9-5.8 8.5.3.2 1.5.7 4.5.7 5 0 12.6-1.5 21.8-4.2 5.7-1.7 9.8-2.5 13.1-2.5 6.9 0 9.7 3.5 12.1 6.7 2.8 3.6 6.2 8.1 19.4 10.6 7.7 1.5 12.2 4.4 13.6 9.1 2.8 9.2-8.5 20.4-21.7 33.4-4.9 4.9-10.1 9.9-14.2 14.7-5.4 6-10.9 8.9-16.9 8.9z"/><path class="st1" d="M212.8 114.8c-8.8-1.3 1.8-25.7-1-38s-15.3-34.7-25.6-6c-10.3 28.7-10.3 57.3-10.3 57.3s-5.6 50.7-31.2 30.5c-25.5-20.2-14.9-41.9-24.4-51.5s-26.3-3.3-23.1 8c2.5 8.9.3 22.7-12.3 17.3-12.7-5.3-10.3-21.4-26.7-30.6-16.2-9.1-33.3-13.7-35.7 12.2-2.3 26-2.3 44.3 26.7 45.5 29 1.2 36.7-10.1 49.7-10.5 11.8-.4 23.8 8.2 13 15.3-20.9 13.8-8.8 50.5 5.5 39.3 14.3-11.1 29.8-23.8 29.8 11 0 37.3 9.2 16 36.6 13.7 27.3-2.3 40.9 28.5 59.3 7.3 18.3-21.2 53-45.2 24.6-50.6-31.6-6-14.2-23.4-42.7-14.9-28.6 8.5-39.9 4.6-24.6-11.6 15.3-16.2 53.7-18.2 51.4-36.5-2.6-18.2-30.2-5.9-39-7.2z"/><circle class="st0" cx="230" cy="205.7" r="17.2"/><circle class="st0" cx="198" cy="134.7" r="11.9"/><circle class="st2" cx="197.3" cy="127.8" r="2.8"/><circle class="st2" cx="200.1" cy="133.4" r="2.8"/><circle class="st2" cx="204.9" cy="137.5" r="2.8"/><circle class="st2" cx="198" cy="141.7" r="2.8"/><circle class="st2" cx="191.8" cy="138.9" r="2.8"/><circle class="st2" cx="192.5" cy="132.7" r="2.8"/><ellipse class="st0" cx="43.1" cy="123.1" rx="2.8" ry="4.9"/><ellipse class="st0" cx="49.5" cy="140" rx="2.2" ry="3.8"/><ellipse transform="matrix(.966 -.259 .259 .966 -29.653 17.234)" class="st0" cx="50.5" cy="121.1" rx="2.2" ry="3.9"/><ellipse transform="matrix(.966 -.259 .259 .966 -33.369 19.042)" class="st0" cx="55.5" cy="136.1" rx="2.2" ry="3.9"/><ellipse transform="matrix(.771 -.637 .637 .771 -78.856 58.975)" class="st0" cx="42.5" cy="139.1" rx="2.2" ry="3.9"/><ellipse transform="matrix(.598 -.802 .802 .598 -89.606 83.467)" class="st0" cx="38.3" cy="131" rx="3.2" ry="5.5"/><ellipse transform="matrix(.881 .474 -.474 .881 65.789 -12.498)" class="st0" cx="57.7" cy="124.4" rx="2.8" ry="4.9"/><ellipse transform="matrix(.748 .664 -.664 .748 99.38 .444)" class="st0" cx="49.1" cy="131.1" rx="2.8" ry="4.9"/></svg>