<svg xmlns="http://www.w3.org/2000/svg" width="300" height="300" viewBox="0 0 300 300"><style type="text/css">.st0{fill:#AAA592;} .st1{fill:#F6F4EC;} .st2{fill:#7E7A6C;}</style><path class="st0" d="M184.1 262.6c-.8 0-1.6 0-2.4-.1-2.8-.2-5.6-.3-8.3-.5-14.1-.7-27.5-1.3-38.2-9.5-11.8-9-18.1-25.7-20-52.4-1.2-18.3-8.7-18.3-12.3-18.3-5.7 0-13.1 2.6-20.8 5.3-8.8 3.1-17.9 6.3-26.4 6.3-15.3 0-24.3-10.4-27.4-31.9-7-48.4 16.8-59.2 35.9-67.9 10.2-4.6 19-8.6 21.4-17.6 6.7-24.2 32.3-38.6 68.4-38.6 27.9 0 62 9.7 70.1 27.7 5 11 4.4 22.1 3.8 32.8-1 19-2 37 27.8 55.9 14.9 9.4 20.1 23.2 15.3 40-4.5 15.4-17.6 32.5-36.1 46.8-17.7 13.7-36.7 22-50.8 22z"/><path class="st1" d="M89.6 77.1c-8.1 29.3-67.6 12.2-57.3 83.9 10.3 71.7 82.8-22.5 86.9 38.9 4.1 61.4 32.1 56.5 62.8 58.6 38.6 2.7 120.7-70.3 71.7-101.4-49-31-20-61.4-33.1-90.4-13.1-28.9-116.5-42-131 10.4z"/><circle class="st0" cx="170.1" cy="92.2" r="17.2"/><circle class="st0" cx="238.1" cy="185.2" r="17.2"/><circle class="st2" cx="237.1" cy="175.2" r="4"/><circle class="st2" cx="241.1" cy="183.2" r="4"/><circle class="st2" cx="248.1" cy="189.2" r="4"/><circle class="st2" cx="238.1" cy="195.2" r="4"/><circle class="st2" cx="229.1" cy="191.2" r="4"/><circle class="st2" cx="230.1" cy="182.2" r="4"/><ellipse class="st0" cx="147.2" cy="137.5" rx="2.8" ry="4.9"/><ellipse class="st0" cx="153.6" cy="154.4" rx="2.2" ry="3.8"/><ellipse transform="matrix(.966 -.259 .259 .966 -29.836 44.714)" class="st0" cx="154.6" cy="135.5" rx="2.2" ry="3.9"/><ellipse transform="matrix(.966 -.259 .259 .966 -33.552 46.521)" class="st0" cx="159.6" cy="150.5" rx="2.2" ry="3.9"/><ellipse transform="matrix(.771 -.637 .637 .771 -64.182 128.63)" class="st0" cx="146.6" cy="153.5" rx="2.2" ry="3.9"/><ellipse transform="matrix(.598 -.802 .802 .598 -59.266 172.73)" class="st0" cx="142.4" cy="145.4" rx="3.2" ry="5.5"/><ellipse transform="matrix(.881 .474 -.474 .881 85.044 -60.085)" class="st0" cx="161.8" cy="138.8" rx="2.8" ry="4.9"/><ellipse transform="matrix(.748 .664 -.664 .748 135.18 -65.018)" class="st0" cx="153.2" cy="145.5" rx="2.8" ry="4.9"/></svg>