<svg xmlns="http://www.w3.org/2000/svg" width="256" height="256" viewBox="0 0 256 256">
  <style type="text/css">
    .st0 {
      fill: #323232;
    }
  </style>
  <path class="st0"
        d="M200.3 32c-23.5 0-42.5 19-42.5 42.5 0 6.1 1.3 11.9 3.6 17.1-14.2 18-29.9 25.4-40.6 28.4-2.9-10.5-12.5-18.3-24-18.3-1.6 0-3.3.2-4.8.5-5.7-9.3-15.9-15.5-27.6-15.5-17.9 0-32.4 14.5-32.4 32.4 0 6 1.7 11.6 4.5 16.5-13.5 3.9-23.3 16.4-23.3 31.1 0 17.9 14.5 32.4 32.4 32.4.4 0 .8 0 1.1-.1 3.2 10.1 12.6 17.5 23.8 17.5 6.8 0 12.9-2.7 17.4-7.1 3.9 8.6 12.6 14.6 22.6 14.6 13.8 0 24.9-11.1 24.9-24.9v-.9c14.2-3.4 24.8-16.2 24.8-31.5 0-17.9-14.5-32.4-32.4-32.4h-1.3c6.7-8.8 20.1-21.8 44-29.5 7.7 7.5 18.2 12.2 29.8 12.2 23.5 0 42.5-19 42.5-42.5s-19-42.5-42.5-42.5z" />
</svg>
