<svg xmlns="http://www.w3.org/2000/svg" width="300" height="300" viewBox="0 0 300 300"><style type="text/css">.st0{fill:#AAA592;} .st1{fill:#F6F4EC;} .st2{fill:#7E7A6C;}</style><path class="st0" d="M244.8 256.2c-8.4 0-16.7-6.8-20.5-16.8-2.2-5.7-5.1-9.1-7.7-9.1-2.7 0-6.1 3.2-9.1 8.6-4.8 8.6-17.2 16.2-26.5 16.2-4.2 0-7.7-1.6-9.7-4.5-2.7-3.9-2.6-9.8.3-17.4 4.5-11.8 13.7-23.8 22.6-35.3 10-13.1 20.4-26.6 17.6-33-7.4-17.5-24.3-46.9-53.6-46.9-8.5 0-17.6 2.5-27.2 7.3-8.6 4.4-12.1 17.9-15.8 32.1-4.2 16.4-9 35-23.3 44.4-7.7 5.1-13.7 7.5-18.4 7.5-4.3 0-6.9-2-8.2-3.7-3.4-4.3-3.8-12.1-1.1-23.7l.6-2.7c.9-3.9 2.2-9.1 1.6-10.5-.2-.1-.6-.2-1.5-.2-2.8 0-7.7 1.2-14.4 3.6-5.5 1.9-10.3 2.9-14.5 2.9-9.7 0-12.6-5.3-13.4-7.6-2.5-7.3 3-17.2 14.8-26.5 9.5-7.4 29.8-17 51.2-27.1 25.9-12.2 61.4-28.9 64.4-37.6 5.2-15 16.7-23.6 31.7-23.6 13.2 0 26.8 7.2 34.6 18.3 7.6 10.8 9.1 24 4.4 37.2-5.3 14.8 6.1 35.3 18.3 57.1 14.2 25.5 28.9 51.8 20.6 75.2-3.4 10.1-9.9 15.8-17.8 15.8z"/><path class="st1" d="M156.9 77.6c-6 17.5-94.7 49.1-117 66.6-22.3 17.5-16.7 33.5 9.2 24.3s22.5-.9 18.9 14.5c-3.6 15.4-3.5 32.3 21.7 15.6 25.2-16.6 18.3-66.1 39.5-76.8 49.6-25.2 75.9 16.9 86.3 41.6 6.4 15.1-30.1 45.1-40.1 71.4-10.1 26.3 20.7 16.5 28.6 2.3 7.9-14.2 18-14.5 24 1s23.7 21.7 30.9 1.2c14.7-41.5-51.3-97.8-38.9-132.4 15.9-44.1-48.7-71.3-63.1-29.3z"/><circle class="st0" cx="90" cy="147.7" r="11.6"/><circle class="st0" cx="187" cy="89.7" r="17.4"/><circle class="st2" cx="186" cy="79.7" r="4"/><circle class="st2" cx="190" cy="87.7" r="4"/><circle class="st2" cx="197.1" cy="93.8" r="4"/><circle class="st2" cx="187" cy="99.8" r="4"/><circle class="st2" cx="177.9" cy="95.8" r="4"/><circle class="st2" cx="178.9" cy="86.7" r="4"/><ellipse class="st0" cx="222.1" cy="199.1" rx="2.8" ry="4.9"/><ellipse class="st0" cx="228.5" cy="216" rx="2.2" ry="3.8"/><ellipse transform="matrix(.966 -.259 .259 .966 -43.233 66.218)" class="st0" cx="229.5" cy="197.1" rx="2.2" ry="3.9"/><ellipse transform="matrix(.966 -.259 .259 .966 -46.949 68.026)" class="st0" cx="234.5" cy="212.1" rx="2.2" ry="3.9"/><ellipse transform="matrix(.771 -.637 .637 .771 -86.248 190.427)" class="st0" cx="221.5" cy="215.1" rx="2.2" ry="3.9"/><ellipse transform="matrix(.598 -.802 .802 .598 -78.503 257.595)" class="st0" cx="217.3" cy="207" rx="3.2" ry="5.5"/><ellipse transform="matrix(.881 .474 -.474 .881 123.124 -88.204)" class="st0" cx="236.7" cy="200.4" rx="2.8" ry="4.9"/><ellipse transform="matrix(.748 .664 -.664 .748 194.933 -99.207)" class="st0" cx="228.1" cy="207.1" rx="2.8" ry="4.9"/></svg>