<svg xmlns="http://www.w3.org/2000/svg" width="256" height="256" viewBox="0 0 256 256">
  <style type="text/css">
    .st0 {
      fill: #323232;
    }
  </style>
  <path class="st0"
        d="M217.2 217.2c-6.2 0-11.2-5-11.2-11.2 0-85-69.1-154.1-154.1-154.1-6.2 0-11.2-5-11.2-11.2 0-6.2 5-11.2 11.2-11.2 97.3 0 176.5 79.2 176.5 176.5 0 6.2-5 11.2-11.2 11.2zM176.1 217.2c-6.2 0-11.2-5-11.2-11.2 0-62.3-50.7-113-113-113-6.2 0-11.2-5-11.2-11.2 0-6.2 5-11.2 11.2-11.2 74.6 0 135.4 60.7 135.4 135.4 0 6.2-5.1 11.2-11.2 11.2zM134.9 217.2c-6.2 0-11.2-5-11.2-11.2 0-39.6-32.2-71.8-71.8-71.8-6.2 0-11.2-5-11.2-11.2 0-6.2 5-11.2 11.2-11.2 52 0 94.2 42.3 94.2 94.2 0 6.2-5 11.2-11.2 11.2zM91.1 194.7c0 17.6-14.2 31.8-31.8 31.8-17.5 0-31.8-14.2-31.8-31.8 0-17.5 14.2-31.8 31.8-31.8 17.6.1 31.8 14.3 31.8 31.8z" />
</svg>
